<?xml version="1.0" encoding="utf-8"?>
<!-- Generator: Adobe Illustrator 15.1.0, SVG Export Plug-In . SVG Version: 6.00 Build 0)  -->
<!DOCTYPE svg PUBLIC "-//W3C//DTD SVG 1.1//EN" "http://www.w3.org/Graphics/SVG/1.1/DTD/svg11.dtd">
<svg version="1.1" id="Layer_1" xmlns="http://www.w3.org/2000/svg" xmlns:xlink="http://www.w3.org/1999/xlink" x="0px" y="0px"
	 width="722px" height="621.525px" viewBox="-61.86 0 722 621.525" enable-background="new -61.86 0 722 621.525"
	 xml:space="preserve">
<g display="none">
	
		<circle display="inline" fill="none" stroke="#0066A2" stroke-width="30" stroke-miterlimit="10" cx="295.182" cy="167.19" r="145.327"/>
	<path display="inline" fill="none" stroke="#0066A2" stroke-width="30" stroke-miterlimit="10" d="M552.298,596.184l-504.45,1.396
		c-20.961,1.398-15.371-120.174-15.371-120.174c0-88.034,117.379-162.094,264.103-163.492c146.724,0,266.898,69.868,266.898,157.904
		C562.081,474.611,567.669,598.979,552.298,596.184z"/>
</g>
<g id="Icon_59_" display="none">
	
		<circle display="inline" fill="none" stroke="#0066A2" stroke-width="30" stroke-miterlimit="10" cx="293.083" cy="319.342" r="79.791"/>
	<path display="inline" fill="none" stroke="#0066A2" stroke-width="30" stroke-miterlimit="10" d="M511.457,383.384
		c7.349-22.047,11.549-45.145,11.549-71.393c0-24.147-4.2-48.293-11.549-71.391l41.995-29.396c6.299-4.2,7.349-12.599,3.149-17.848
		l-61.942-87.14c-4.2-6.299-12.599-7.349-17.849-3.149l-39.895,30.446c-22.048-15.748-50.395-29.396-71.393-37.795V34.825
		c0-5.25-4.199-10.499-10.498-10.499h-6.3H242.689c-7.349,0-9.449,10.499-9.449,10.499v60.893
		c-30.446,8.399-53.543,20.998-75.591,38.845l-45.145-31.496c-6.3-4.2-14.698-3.15-18.897,3.149l-61.943,87.14
		c-4.199,6.299-3.149,14.698,3.149,17.848L79.958,242.7c-7.35,20.998-10.499,44.095-10.499,68.243
		c0,25.197,4.199,49.344,12.599,72.441l-41.995,29.397c-6.3,4.199-7.35,12.597-3.149,17.847l61.942,87.14
		c4.199,6.299,12.599,7.348,17.848,3.148l44.095-29.396c20.998,15.748,43.045,28.348,73.491,36.746v50.395
		c0,12.598,10.499,22.047,22.048,22.047h93.438c9.449,0,15.748-7.35,15.748-15.748v-57.744
		c19.948-8.398,48.295-20.996,70.342-37.795l37.796,26.248c5.249,4.199,13.648,3.148,17.848-3.15l60.894-87.14
		c4.199-6.298,3.149-14.696-3.15-17.847L511.457,383.384z"/>
</g>
<g id="Icon_47_" display="none">
	
		<ellipse display="inline" fill="none" stroke="#0066A2" stroke-width="30" stroke-miterlimit="10" cx="297.64" cy="303.199" rx="270.868" ry="271.919"/>
	<polyline display="inline" fill="none" stroke="#0066A2" stroke-width="30" stroke-miterlimit="10" points="289.241,181.412 
		289.241,313.696 364.832,367.241 	"/>
</g>
<g display="none">
	
		<line display="inline" fill="none" stroke="#0066A2" stroke-width="30" stroke-miterlimit="10" x1="307.53" y1="589.238" x2="303.371" y2="97.139"/>
	<path display="inline" fill="none" stroke="#0066A2" stroke-width="30" stroke-miterlimit="10" d="M319.14,594.195
		c-23.565-30.496-82.308-47.929-126.666-47.929H-21h-19.406V43.077c0-8.317,18.021-12.476,26.337-12.476h199.613
		c47.13,0,97.033,30.496,117.827,66.538"/>
	<path display="inline" fill="none" stroke="#0066A2" stroke-width="30" stroke-miterlimit="10" d="M299.14,594.195
		c23.564-30.496,79.086-47.929,123.443-47.929H638.83v-19.407V44.463c0-8.317-1.385-12.476-8.316-12.476H429.515
		c-47.131,0-105.353,29.11-126.144,66.538"/>
</g>
<g id="Icon_4_">
	<path fill="none" stroke="#0066A2" stroke-width="30" stroke-miterlimit="10" d="M300.473,601.945L403.25,487.018h12.147
		l178.579-1.217c8.504,0,19.437-12.146,19.437-20.652l-2.429-423.973c0-7.29-9.718-17.008-19.438-17.008L7.217,27.812
		c-8.504,0-14.578,2.43-14.578,9.719l2.429,422.758c0,7.288,0,25.512,9.72,29.157l206.519-1.217"/>
	
		<line fill="none" stroke="#0066A2" stroke-width="30" stroke-miterlimit="10" x1="320.973" y1="601.278" x2="200.473" y2="484.112"/>
</g>
</svg>
